<?xml version="1.0" encoding="UTF-8"?>
<svg id="Capa_1" data-name="Capa 1" xmlns="http://www.w3.org/2000/svg" viewBox="0 0 64 64">
  <defs>
    <style>
      .cls-1 {
        fill: #ffe62e;
      }

      .cls-2 {
        fill: #ed4c5c;
      }
    </style>
  </defs>
  <circle class="cls-2" cx="32" cy="32" r="30.7"/>
  <g>
    <path class="cls-1" d="M22,28.4l8,5.6-3-9.2,8-5.8h-9.9l-3.1-9-3,9h-10l8,5.8-3,9.2,8-5.6Z"/>
    <path class="cls-1" d="M35.3,35.3l-2.3.5,2.2.9v2.3l1.5-1.7,2.2.8-1.3-1.9,1.4-1.8-2.3.5-1.4-1.9v2.3Z"/>
    <path class="cls-1" d="M38.7,28.5l-1.7,1.5,2.3-.2,1,2.2.4-2.3,2.3-.2-2-1.2.5-2.3-1.7,1.5-2-1.2.9,2.2Z"/>
    <path class="cls-1" d="M39.3,20.7l.7,2.3.7-2.2h2.3l-1.8-1.4.7-2.3-1.9,1.4-1.8-1.5.7,2.3-1.9,1.3,2.3.1Z"/>
    <path class="cls-1" d="M35.3,12.7v2.3l1.4-1.9,2.3.5-1.4-1.8,1.3-1.9-2.2.9-1.5-1.8v2.3l-2.2.9,2.3.5Z"/>
  </g>
</svg>