<?xml version="1.0" encoding="UTF-8"?>
<svg id="Capa_1" data-name="Capa 1" xmlns="http://www.w3.org/2000/svg" viewBox="0 0 64 64">
  <defs>
    <style>
      .cls-1 {
        fill: #005bbf;
      }

      .cls-2 {
        fill: #fff;
      }

      .cls-3 {
        fill: #c7b500;
      }

      .cls-4 {
        fill: #ffce31;
      }

      .cls-5 {
        fill: #c8b100;
      }

      .cls-6 {
        fill: #ed4c5c;
      }
    </style>
  </defs>
  <g id="SVGRepo_iconCarrier" data-name="SVGRepo iconCarrier">
    <path class="cls-4" d="M1.34,32c0,6.04,1.73,11.67,4.71,16.37h51.89c2.96-4.71,4.71-10.33,4.71-16.37s-1.73-11.67-4.71-16.37H6.05c-2.96,4.71-4.71,10.33-4.71,16.37Z"/>
    <g>
      <path class="cls-6" d="M58.04,15.63C52.62,7.03,43,1.3,32.05,1.3S11.49,7.03,6.07,15.63h51.99-.01Z"/>
      <path class="cls-6" d="M6.05,48.37c5.42,8.6,15.04,14.33,25.99,14.33s20.57-5.73,25.99-14.33H6.05Z"/>
    </g>
    <g>
      <path class="cls-5" d="M8.71,28.62h3.27v1.84h-3.27v-1.84Z"/>
      <path class="cls-5" d="M8.71,42.13h3.38v1.73h-3.38v-1.73Z"/>
    </g>
    <path class="cls-6" d="M8.4,39.27c-.31.21-.52.41-.52.52s.1.21.31.31.41.31.31.52c.21-.21.31-.41.31-.61,0-.31-.21-.61-.41-.71"/>
    <path class="cls-2" d="M9.23,30.46h2.35v11.67h-2.35s0-11.67,0-11.67Z"/>
    <g>
      <path class="cls-6" d="M14.04,34.77c-.52-.21-1.43-.41-2.46-.41-.31,0-.71,0-1.13.1-1.43.21-2.56.82-2.46,1.23l-.52-1.13c-.1-.52,1.13-1.13,2.66-1.43.52-.1,1.02-.1,1.43-.1,1.02,0,1.94.1,2.46.31v1.43"/>
      <path class="cls-6" d="M9.23,36.29c-.61,0-1.13-.21-1.13-.52,0-.21.21-.52.61-.71h.61l-.1,1.23"/>
      <path class="cls-6" d="M11.58,35.38c.41.1.71.21.92.31.1.1-.31.52-.92.82v-1.13"/>
      <path class="cls-6" d="M7.69,38.56c-.1-.21.61-.61,1.54-.92.41-.1.71-.31,1.23-.52,1.23-.52,2.25-1.23,2.04-1.43l.21,1.23c.1.21-.71.82-1.94,1.43-.41.21-1.13.52-1.54.61-.71.21-1.33.61-1.33.71l-.21-1.13"/>
    </g>
    <g>
      <path class="cls-5" d="M30.72,28.62h3.27v1.84h-3.27v-1.84Z"/>
      <path class="cls-5" d="M30.62,42.13h3.38v1.73h-3.38s0-1.73,0-1.73Z"/>
    </g>
    <path class="cls-6" d="M34.31,39.27c.31.21.52.41.52.52s-.1.21-.31.31c-.21.21-.41.52-.31.61-.21-.21-.31-.41-.31-.61,0-.41.21-.71.41-.82"/>
    <path class="cls-2" d="M31.13,30.46h2.35v11.67h-2.35s0-11.67,0-11.67Z"/>
    <g>
      <path class="cls-6" d="M28.67,34.77c.52-.21,1.43-.41,2.46-.41.31,0,.71,0,1.13.1,1.43.21,2.56.82,2.46,1.23l.52-1.23c.1-.52-1.13-1.13-2.66-1.43h-1.43c-1.02,0-1.94.1-2.46.31v1.43"/>
      <path class="cls-6" d="M33.48,36.29c.61,0,1.13-.21,1.13-.52,0-.21-.21-.52-.61-.71h-.61l.1,1.23"/>
      <path class="cls-6" d="M31.13,35.38c-.41.1-.71.21-.92.31-.1.1.31.52.92.82v-1.13"/>
      <path class="cls-6" d="M35.02,38.56c.1-.21-.61-.61-1.54-.92-.41-.1-.71-.31-1.23-.52-1.23-.52-2.25-1.23-2.04-1.43l-.21,1.23c-.1.21.71.82,1.94,1.43.41.21,1.13.52,1.54.61.71.21,1.33.71,1.23.82l.31-1.23"/>
      <path class="cls-6" d="M21.31,22.07c1.94,0,5.94.41,7.37,1.84-1.54,3.69-4,2.15-7.37,2.15s-5.83,1.54-7.37-2.15c1.43-1.43,5.33-1.84,7.37-1.84"/>
    </g>
    <g>
      <path class="cls-5" d="M26.32,26.17c-1.23-.71-3.07-.82-5.02-.82s-3.79.21-5.02.82l.41,1.73c1.13.31,2.77.52,4.6.52s3.38-.21,4.6-.52l.41-1.73"/>
      <path class="cls-5" d="M28.06,21.77c-.41-.31-1.23-.61-1.94-.61-.31,0-.61,0-.92.1,0,0-.61-.82-2.04-.82-.52,0-.92.1-1.33.31v-.1c-.1-.21-.31-.41-.52-.41s-.52.31-.52.52v.1c-.41-.21-.82-.31-1.33-.31-1.43,0-2.04.92-2.04.82-.31-.1-.61-.1-.92-.1-4.71,0-2.35,3.17-2.35,3.17l.52-.61c-1.13-1.43-.1-2.25,1.94-2.25.31,0,.52,0,.71.1-.71,1.02.61,1.94.61,1.94l.31-.52c-.71-.52-.82-2.25,1.23-2.25.52,0,.92.1,1.33.41,0,.1-.1,1.54-.21,1.73l.82.71.82-.71c-.1-.31-.21-1.64-.21-1.73.31-.21.82-.41,1.33-.41,2.15,0,2.15,1.73,1.23,2.25l.31.52s1.13-.92.61-1.94c.21,0,.52-.1.71-.1,2.46,0,2.56,1.84,1.94,2.25l.41.61c-.21,0,.92-1.43-.52-2.66"/>
    </g>
    <path class="cls-1" d="M20.69,19.82c0-.31.31-.61.61-.61.41,0,.61.31.61.61s-.31.61-.61.61-.61-.31-.61-.61"/>
    <path class="cls-5" d="M21.1,18.08v.31h-.31v.31h.31v1.02h-.41v.31h1.23l.1-.21-.1-.1h-.41v-1.02h.31v-.31h-.31v-.31h-.42Z"/>
    <path class="cls-6" d="M21.31,28.21c-1.64,0-3.07-.21-4.19-.52,1.13-.31,2.56-.52,4.19-.52s3.07.21,4.19.52c-1.02.31-2.56.52-4.19.52"/>
    <g>
      <path class="cls-2" d="M21.4,45.92c-1.94,0-3.79-.52-5.42-1.23-1.23-.61-1.94-1.73-1.94-3.07v-4.91h14.74v4.91c0,1.33-.82,2.56-1.94,3.07-1.64.82-3.48,1.23-5.42,1.23"/>
      <path class="cls-2" d="M21.31,28.52h7.37v8.19h-7.37s0-8.19,0-8.19Z"/>
    </g>
    <path class="cls-6" d="M21.4,41.62c0,1.94-1.64,3.48-3.69,3.48s-3.69-1.54-3.69-3.48v-4.91h7.37v4.91"/>
    <g>
      <path class="cls-5" d="M15.57,44.48c.21.1.52.31.92.41v-8.39h-.82l-.1,7.98"/>
      <path class="cls-5" d="M13.94,41.52c0,1.02.41,1.84.82,2.25v-7.27h-.82v5.02"/>
    </g>
    <path class="cls-3" d="M17.21,45.1h.82v-8.6h-.82v8.6"/>
    <path class="cls-5" d="M18.85,44.89c.31-.1.71-.31.92-.41v-7.98h-.82l-.1,8.39"/>
    <path class="cls-6" d="M13.94,28.52h7.37v8.19h-7.37s0-8.19,0-8.19Z"/>
    <path class="cls-5" d="M20.59,43.77c.41-.31.71-1.02.82-1.84v-5.33h-.82v7.16"/>
    <g>
      <path class="cls-6" d="M28.77,36.71v4.91c0,1.94-1.64,3.48-3.69,3.48s-3.69-1.54-3.69-3.48v-4.91h7.37"/>
      <path class="cls-6" d="M26.11,29.96c.31.61.31,2.15-.61,1.84.21.1.31.82.61,1.23.52.61,1.13.1,1.02-.61-.21-1.13-.1-1.84.1-2.96,0,.1.52.1.71-.1-.1.31-.21.71,0,.71-.21.31-.71.82-.82,1.13-.1.71,1.02,2.04-.21,2.35-.82.21-.31.82,0,1.13,0,0-.41,1.33-.21,1.23-.82.31-.61-.41-.61-.41.41-1.23-.71-1.33-.61-1.54-1.02-.1.1.92-.82.92-.21,0-.61.21-.61.21-1.13-.1-.52-1.13-.1-1.02.31.1.61.61.61-.1,0,0-.52-.82.82-.82-.52,0-.82-.41-1.02-.92-.21.1-.52.61-1.64.71,0,0-.31-1.13,0-.92.41.21.61.21,1.02-.21-.21-.31-1.43-.71-1.23-1.43,0-.21.61-.52.61-.52-.1.52.21,1.02.82,1.02.82.1.52-.21.61-.41.1-.21.71.1.52-.41,0-.1-.71-.21-.52-.52.41-.52,1.02-.1,1.54.41"/>
      <path class="cls-6" d="M21.4,44.89l-.21-.52.21-.61.21.61-.21.52"/>
    </g>
    <g>
      <path class="cls-5" d="M16.19,30.27v.52h.21v.41h-.52v1.02h.31v2.25h-.61v1.13h4.19v-1.13h-.52v-2.25h.21v-1.02h-.52v-.41h.31v-.52h-1.02v.52h.21v.41h-.52v-1.23h.31v-.52h-1.13v.52h.31v1.23h-.52v-.41h.21v-.52h-.92.01Z"/>
      <path class="cls-5" d="M27.75,42.85v-5.12h-5.33v5.12l2.46,1.13h.31l2.56-1.13M24.88,38.14v1.73l-1.73-1.73h1.73M22.73,38.25l2.04,2.04-2.04,2.04v-4.1M22.94,42.75l1.94-1.94v2.87l-1.94-.92M25.19,43.56v-2.87l1.94,1.94-1.94.92M27.34,42.33l-2.04-2.04,2.04-2.04v4.1M25.19,38.14h1.73l-1.73,1.73v-1.73"/>
    </g>
    <path class="cls-6" d="M18.94,36.6c0-1.54,1.02-2.66,2.35-2.66s2.35,1.23,2.35,2.66-1.02,2.66-2.35,2.66-2.35-1.13-2.35-2.66"/>
    <path class="cls-1" d="M19.67,36.6c0-1.13.71-1.94,1.64-1.94s1.64.92,1.64,1.94c0,1.13-.71,1.94-1.64,1.94-.82.1-1.64-.82-1.64-1.94"/>
    <g>
      <path class="cls-5" d="M20.59,35.27l-.41,1.13.31.1-.21.41h.61l-.21-.41.31-.1-.41-1.13"/>
      <path class="cls-5" d="M22.12,35.27l-.41,1.13.31.1-.21.41h.61l-.1-.41.31-.1-.52-1.13"/>
      <path class="cls-5" d="M21.4,36.6l-.52,1.13.31.1-.1.41h.52l-.1-.41.31-.1-.41-1.13"/>
    </g>
  </g>
</svg>