<?xml version="1.0" encoding="UTF-8"?>
<svg id="Capa_1" data-name="Capa 1" xmlns="http://www.w3.org/2000/svg" viewBox="0 0 64 64">
  <defs>
    <style>
      .cls-1 {
        fill: #fff;
      }

      .cls-2 {
        fill: #2a5f9e;
      }

      .cls-3 {
        fill: #ed4c5c;
      }
    </style>
  </defs>
  <g id="SVGRepo_iconCarrier" data-name="SVGRepo iconCarrier">
    <g>
      <path class="cls-2" d="M21.77,60.96v-14.12l-10.54,7.78c2.97,2.76,6.55,4.91,10.54,6.34"/>
      <path class="cls-2" d="M42.23,60.96c3.99-1.43,7.57-3.58,10.54-6.34l-10.54-7.88v14.22"/>
      <path class="cls-2" d="M3.04,42.23c.31,1.02.72,1.94,1.23,2.97l3.99-2.97H3.04"/>
      <path class="cls-2" d="M55.74,42.23l3.99,2.97c.41-.92.82-1.94,1.23-2.97h-5.22"/>
    </g>
    <g>
      <path class="cls-1" d="M23.3,38.14H1.91c.31,1.43.72,2.76,1.13,4.09h5.22l-3.99,2.97c.82,1.74,1.74,3.27,2.87,4.81l10.54-7.78h4.09v2.05l-11.97,8.8,1.43,1.43,10.54-7.68v14.12c1.33.51,2.66.82,4.09,1.13v-23.95h-2.56"/>
      <path class="cls-1" d="M62.09,38.14h-23.95v23.95c1.43-.31,2.76-.72,4.09-1.13v-14.12l10.54,7.68c1.43-1.33,2.66-2.76,3.89-4.3l-10.95-7.98h6.96l6.24,4.61c.31-.51.61-1.13.82-1.64l-3.99-2.97h5.22c.41-1.33.82-2.66,1.13-4.09"/>
    </g>
    <g>
      <path class="cls-3" d="M7.13,50.01c.82,1.13,1.64,2.15,2.56,3.17l12.08-8.8v-2.05h-4.09l-10.54,7.68"/>
      <path class="cls-3" d="M45.82,42.23l10.95,7.98c.41-.51.72-1.02,1.13-1.54.1-.1.1-.2.2-.2.31-.51.72-1.13,1.02-1.64l-6.45-4.61h-6.86"/>
    </g>
    <g>
      <path class="cls-2" d="M42.23,3.04v14.12l10.54-7.78c-2.97-2.76-6.55-4.91-10.54-6.34"/>
      <path class="cls-2" d="M21.77,3.04c-3.99,1.43-7.57,3.58-10.54,6.34l10.54,7.88V3.04"/>
      <path class="cls-2" d="M60.96,21.77c-.31-1.02-.72-1.94-1.23-2.97l-3.99,2.97h5.22"/>
      <path class="cls-2" d="M8.26,21.77l-3.99-2.97c-.41,1.02-.82,1.94-1.23,2.97h5.22"/>
    </g>
    <g>
      <path class="cls-1" d="M40.7,25.86h21.29c-.31-1.43-.72-2.76-1.13-4.09h-5.22l3.99-2.97c-.82-1.74-1.74-3.27-2.87-4.81l-10.44,7.78h-4.09v-2.05l11.97-8.8-1.43-1.43-10.54,7.68V3.04c-1.33-.51-2.66-.82-4.09-1.13v23.95h2.56"/>
      <path class="cls-1" d="M1.91,25.86h23.95V1.91c-1.43.31-2.76.72-4.09,1.13v14.12l-10.54-7.68c-1.43,1.33-2.66,2.76-3.89,4.3l10.95,7.98h-6.96l-6.24-4.61c-.31.51-.61,1.13-.82,1.64l3.99,2.97H3.04c-.41,1.33-.82,2.66-1.13,4.09"/>
    </g>
    <g>
      <path class="cls-3" d="M56.87,13.99c-.82-1.13-1.64-2.15-2.56-3.17l-12.08,8.8v2.05h4.09l10.54-7.68"/>
      <path class="cls-3" d="M18.18,21.77l-10.85-7.98c-.41.51-.72,1.02-1.13,1.54-.1.1-.1.2-.2.2-.31.51-.72,1.13-1.02,1.64l6.24,4.61h6.96"/>
      <path class="cls-3" d="M62.09,25.86h-23.95V1.91c-1.94-.41-3.99-.61-6.14-.61s-4.2.2-6.14.61v23.95H1.91c-.41,1.94-.61,3.99-.61,6.14s.2,4.2.61,6.14h23.95v23.95c1.94.41,3.99.61,6.14.61s4.2-.2,6.14-.61v-23.95h23.95c.41-1.94.61-3.99.61-6.14s-.2-4.2-.61-6.14"/>
    </g>
  </g>
</svg>