<?xml version="1.0" encoding="UTF-8"?>
<svg id="Capa_1" xmlns="http://www.w3.org/2000/svg" version="1.1" viewBox="0 0 400 400">
  <!-- Generator: Adobe Illustrator 30.2.1, SVG Export Plug-In . SVG Version: 2.1.1 Build 1)  -->
  <defs>
    <style>
      .st0 {
        fill: #6f9c76;
        stroke: #fff;
        stroke-linecap: round;
        stroke-linejoin: round;
        stroke-width: .5px;
      }
    </style>
  </defs>
  <g id="features">
    <path id="ECE" class="st0" d="M180.65,42.93l-1,.8-.1.4v.8l.2.9v1.7l-.3,1.2-1.3,2.1-.4,1-.2,3.1.2,1,.4,1,.2.2.7.6.5-.1.9.5,1,1.1.8.6.3.1-.1,2.1.1,1-.1.8-.3.6-.5.4-.4.3-.4.1-1,.1-.5.1-.5.3-.1.3.1.5,1.6,2.9.2.6.4,1.6.3.6.3.5,1.4,1.8.5.9v.8l-.1.7-.3.4-.4.3-.5.2-.8.1h-.6l-.8-.1h-.5l-.5.2-1.7,1.3-.5.4-.7,1.1-1.8,1.9-1.8,2.4-.9,1-.9.7-.4.2h-.4l-.3-.1-.5-.3-.8-.8-.3-.3-.5-.2h-.5l-.6-.1-1.1-.2-.6-.2-1.9-.2-1.6-.6-.6.1-.7.2-1,.6-.6.6-.7.7-.3.4-.2.4v.6l-.1.1-.6.4-1.1,1.2-1.8,2.8-.3.4-.2.2h-1.3l-.8-1.1-.3-.2-.5-.2-5.7-1.2h-1.4l-1.3-.1h-.8l-.6.2-1.6,1-.5.3-.7.3-.5.3-1.1.9-.8.5-1.1.5-.5.3-.3.4v.4l.2.3,1.4,1,.5.4.4.4.1.4.1.3-.2.3-.7,1-.6,1.6-.7,1.3-1.1,2.6-.3.6-.8.7-.7.4-1.4.3-.5.3-1,.3-.1.3.1.3.6.8.2.1h.5l.2.1.1.2v.3l-.3.2-.2.2-.2.2h-.1l-.5-.5-.5-.2-.5-.3-1.6-.4-3.3-.4-1.2-.3-1.1.1-.9-1.4-.1-.3v-.6l-.2-.5v-.4l.1-.2.1-.2.1-.1.1-.1.1-.1h.2l.1-.1.1-.1.1-.2v-.2l.1-.4.1-.2.1-.2,1.4-1.6.1-.1-.1-.1h-.1l-.1-.1h-.4l-.3-.1-.5-.2-1-1-.4-.4-.2-.2h-.2l-.3.1-.5.3-.1.1h-.3l-.1-.2-.1-.3-.1-.9-.1-.2-.1-.1h-.3l-.2.1-.2.1-.1.1-.2.1-.2-.1-.3-.1-.6-.6-.2-.2-.1-.2.1-.1,1-1.5.2-.4.3-.4.3-.2.4-.3.3-.3.1-.2.1-.2v-.1l-.1-.1-.1-.2-.2-.2-2.6-1.5-.1-.2-.2-.2-.1-.2v-.6l.1-.2.1-.2.2-.3.5-.5.1-.1v-.3l-.1-.2-.1-.1-.4-.5-.6-.4-.2-.1-.3-.2h-.3l-.4.1-.7.3-.3.2-.3.2-1.1,1.2-.6.4-.3.2-.7.3-1,.2h-.9l-1.9-.1-.1.1h-.2l-.1.1-.1.1v.1l-.1.6-.3.6-.2.5-.2.2-.2.2-.2.2-.2.2-.4.3-.1.1h-.6l-.4-.1-.4-.1-.4-.2-.7-.9-1.3-3.3.3-.7.1-.4-.1-.7-.3-.5-.7-.7-1.3-2.1-.4-1.1-.2-1.1.2-1.2.4-.6.4-.5.5-.9.1-1.1-.3-1.1-.4-1-.3-1.5-.5-.7-.8-.4-1-.1-.7-.3-.4-.6-.3-.9-.2-.8v-2.3l.6-2.3,1.1-1.9,1.6-1.3,1,.4.8.1,1.8-.1.8-.3,1-.9.8-.3.7-.1,1.4-.5,1.7-.3,1-.8.7-.2.4-.2,1.7-1.3.3-.4.7-1,.4-.4,1.3-.6,3.3-1,1.4-1,.3.6v.4l-1.1,3.4.3.8.4.5.6.4.6.6.7,1.5.4.4-.9-2.5-.7-.5-.2-.4v-.3l.3-.5v-.3l-.1-1.4.2-1,.4-.8,1-.5,2.3.7,2.6-1.5,3.7-3.3,1.1-.3,3.9.3.4-.1,1.3-.5.5-.1h1.5l.7-.1.6-.3,1.3.6,1.5-.2,1.5-.5,1.4-.3,1-.5,4.1-5.5.8-.4,1.3.5,1.1.8.7,1.2.3,1.3.2,1.5,1-.5.6-.8.2-1.1.2-2.3.3-.7.5-.5.6-.8.1.5.3.2h.5l.5-.3.5-.5.1-.4v-.4l.2-.6.9-1,.9-.1,2.2.8-.4-.8-.9-.3-1.2-.1-.8-.3-.4-.8.2-.7.5-.7,2-2,.3-.7v-.8l-.2-.7.1-.6,3.2,2.1,1.1,1.6,1.6,1.3.6.9.5,1.2.8,1.1,1.1.8,1.2.4.9-.1.7-.2.6.1v1.1l.3.5,1.1,1.2.3.9.8-.5h.8l3,.7.4.3h0ZM157.65,32.73v.5l.1.4.3.6v1.9l-.2,2.2-.8,1.4-1.3-.6-.5.6-.6.5-1.1-.8-.8-.9-.2-1,.8-1.2s4.3-3.6,4.3-3.6Z"/>
    <path id="ECC" class="st0" d="M182.55,59.93l-.3-.1-.8-.6-1-1.1-.9-.5-.5.1-.7-.6-.2-.2-.4-1-.2-1,.2-3.1.4-1,1.3-2.1.3-1.2v-1.7l-.2-.9v-.8l.1-.4,1-.8.6.4,5.1,5.7,1.3,1,1,.5,3.2.8,1.1.6,7.1,5.4,2.2,1.1,3.9.1,3.7,1.4h.6l.2-.1h.3l.5.5.2.6v.6l.1.6.6.5,1.2.5,1.2.2h1.1l1.1-.2,4.3-1.6h1.3l1.7,1.3.3,3.9,1.2,1.7,3.5,2.4,2,.8,1.6-.2-.2.2-1.9,1.5-.9.2-1.1-.4-.3-.1h-1.5l-.5-.1-.8-.2-.5-.1h-.6l-.1.2-.2.2-.1.6.1.3.1.3.6.5.3.2.1.3.1.3v.2l-.2.3-.4.4-2,1.5-.4.4-3.8,4.8-.4.7-.3.7-.1.9v.5l.2.7-.3.7-1.2,1.3-1.3-.6-.9-1.2-.7-.5-2.5-1.4-2.2-1.5-2.5-1.4-1.9-.5-.9-.1-1.1-.2-.7-.5-.4-.3-2-.4-.6-.8-.3-1-.1-1,.1-1.5v-.5l-1.2-3.1-2.1-2.7-1.4-2.5-1.3-1.5-1.7-1.5-2.4-1.6-1-.9-.4-.2-.7-.2-2-.2-1-.3-.8-.4h0Z"/>
    <path id="ECU" class="st0" d="M216.55,88.43l1.2-1.3.3-.7-.2-.7v-.5l.1-.9.3-.7.4-.7,3.8-4.8.4-.4,2-1.5.4-.4.2-.3v-.2l-.1-.3-.1-.3-.3-.2-.6-.5-.1-.3-.1-.3.1-.6.2-.2.1-.2h.6l.5.1.8.2.5.1h1.5l.3.1,1.1.4.9-.2,1.9-1.5.2-.2.2-.1,2.3.6.7,2.6.4,5.7.4,1.8.3,1.7.5,1.3,1.5,1.2,1.9.7,5.8,1.1,1,.4.8.4.8.3,1.2-.1,2.7-1,1-.2.7.2,1.1.3,2.1,2.3,1.6.5,2.2.1.7.1.9.3.5.4,1.2,1.2.9.7.8.3h.8l3.8-.6.7.1,1.9.9.8-.1-.1-2.1.6-.3,1.9.5,2.7.3.7.3.9.6,1.4,1.3,1.1.4.8-.1,1.4-.8,5.3-.6,1-.6-.6-3.6.2-4.1-.1-.3.6.1,1.1-.1.6-.1.5-.2,1.3-1.6.3-.3.3-.1,1-.8.6-.1.6.2,1.5,1.6,1,.7,1.1.4,1.1.3,1.4.1,1.2-.1.6.1.4.2.3.5.3,1.5.3.4h1l1.4-.5,1.2-.1.5.8.3.6,3.6,4.6.3.7.2,1,.6.9,1.3,1.3,3.3,2,.5.7,2.2,1.6,1.5.9.9.3,1,.3,1.2.1,1.3-.1,2.3-.5,1-.2,1.1.4.9.8.7.7.5.4,1,.3,2.5,2.3,3.2,1.9,1.3.5,1,.7,3.1.6,3.4,1.3,1,.6-.6.8-1.3.9-.7.3-.7.2-.8.1-1.9-.3-.5.1-1.4.9-1.4-.1-3.8-2.1-.8-.1-.7-.1-1,.1-.8-.1-1-.4-1-.3-.8.3-.3.9.3,1.2.5,1.1.5.6.5.1,1.2-.1.5.1.7.3,1.1,1.1.7.4,1.1.3.9.6.6.8,1.7,6.1,1,2.3,1.6,2.1,1,1,.6.4h1.2l.3.2.3.3,2.1,1.6.2.3.3.6.2.3h.3l.5-.3.2.1.6,1,.2,1-.1,2.1v.5l.1.4.1.4-.1.5-.5.5h-.8l-.2-.1-.1-.3.1-.7v-.1l-.2-.1-.3.1-.5.1h-.6l-1.9-.6-.8-.4h-.6l-.4-.1-.3-.4-.2-.5-.1-.5-.2-.4-.3-.2h-.8l-.5-.2-.6-.3-.6-.2-2.5-.1-.3.1h-.5l-1.7-.6-.7-.5-.3-.3-.2-.4-.2-.3-.1-.6-.1-.3-.2-.1-.5.3-.2-.1-.2-.3-.1-.3-.3-.3-.7-.4-1.1-.5-.7-.4-.5-.2-.5.1-.5.2-.8.2h-.6l-.7-.3-.3-.4-.5-.8-.3-.3-.5-.4-.4-.1-.5.2-.6.2-.6.1h-1.3l-.5.1-.5.2h-.5l-.6-.1-.6-.5-.8-.4-1-.3h-1.7l-.9.2-.7.4-.1.5-.1.9.6,4.4.2.7.3.4.1.2-.1.2-.3.2-.6-.1-1.3-.1-1.2-.3-1.2-.7-2.3-1.6-1-.5-.3-.3-.2-1.3-.3-.7-.3-.6-.3-.3-5.1-.3-4.2.4-.5.1-1.1.6-1.8.5-.5.2-2.1,1.6-1.3.6-.6-.5-.4-.8-.9-.2h-2.1l-1-.5-2.8-2.1-1.2-1.6-1.3.4-1.2.7-.6-.8-.2-.5-.5-.5-3.1-2.2-.6-.5-.3-.4-.1-.3-.6-.8-.5-.6-1-1.5-.1-.3v-.5l-.1-.2-.2-.3-1.7-1.4-5.5-6.6-.5-.9-.4-.5-.8-.5-.7-.2-1.4.3-.9.3-.7.4-.7.4-.8.4-1.1.2h-1.4l-3-.9-.9-.1-.9.1-.6.3-.6.1-.7-.1-1.6-1.1-1.4-.8-.9-.3-.8-.2-.8.6-1.4,1.7-.4.7-.6,1.1-.3.5-.4.3-.3.2h-.6l-1-.1-2.5-.6-.5-.2-.1-.3v-.4l.1-.3.1-.4v-.5l-.2-.5v-.2l.1-.3.1-.3.1-.3-.1-.2-.1-.3-.2-.4-.2-.5-.2-.4-.4-.2-.6.3-.7.5-.3.1-.2.1-.2.2-.2.3-.3.3-.5.2-1,.1-.6.4-1.1,1.2-.6.4-.4.1-.6-.4-.7-.3-1.5-.4-5.4-.1-1-.2-.7-.5-.4-1-.3-1.8v-.5l.1-.3v-.1l.1-.1.1-.1v-.5l-.5-.3-2.4-.6-.6-.2-.3-.2v-.1l-.1-.1-.1-.6-.1-.5-.2-.3-.3-.3-.8-.4-.2-.1-.2-.1h-.3l-.7-.3-1.5-.7h-.5l-.6-.2-.6-.2-.2-.1-.1-.1-.1-.1v-.1h.1l1.3-2.3,1.9-2,.8-.5.3-.1.2-.1.3-.1.2-.2.2-.3,1-1.4.7-.8.2-.1.2-.2v-.2l-.1-.2-.1-.1-.2-.1h-.3l-.1-.1-.1-.1v-.5l.3-.7,1.7-2.2h0Z"/>
    <path id="ECD" class="st0" d="M244.45,110.33l.8-.6.8.2.9.3,1.4.8,1.6,1.1.7.1.6-.1.6-.3.9-.1.9.1,3,.9h1.4l1.1-.2.8-.4.7-.4.7-.4.9-.3,1.4-.3.7.2.8.5.4.5.5.9,5.5,6.6,1.7,1.4.2.3.1.2v.5l.1.3,1,1.5.5.6.6.8.1.3.3.4.6.5,3.1,2.2.5.5.2.5.6.8,1.2-.7,1.3-.4,1.2,1.6,2.8,2.1,1,.5h2.1l.9.2.4.8.6.5,1.3-.6,2.1-1.6.5-.2,1.8-.5,1.1-.6.5-.1,4.2-.4,5.1.3.3.3.3.6.3.7.2,1.3.3.3,1,.5,2.3,1.6,1.2.7,1.2.3,1.3.1.6.1.3-.2.1-.2-.1-.2-.3-.4-.2-.7-.6-4.4.1-.9.1-.5.7-.4.9-.2h1.7l1,.3.8.4.6.5.6.1h.5l.5-.2.5-.1h1.3l.6-.1.6-.2.5-.2.4.1.5.4.3.3.5.8.3.4.7.3h.6l.8-.2.5-.2.5-.1.5.2.7.4,1.1.5.7.4.3.3.1.3.2.3.2.1.5-.3.2.1.1.3.1.6.2.3.2.4.3.3.7.5,1.7.6h.5l.3-.1,2.5.1.6.2.6.3.5.2h.8l.3.2.2.4.1.5.2.5.3.4.4.1h.6l.8.4,1.9.6h.6l.5-.1.3-.1.2.1v.1l-.1.7.1.3.2.1h.8l-.6.3-.6.4-.3.6.1.6.2,1v.5l-.1.6-.3.9v.7l2.4,8.2v.5l-.1.9.1.5.4.6.5.5.4.5v.4h-3l-2.3.3h-1.2l-.6-.5-.3-.5-.7-.9-1.6-1.4-.3.5-.7,2.7-1.6,6.4-1.6,6.3-1.7,6.4-1.6,6.4-.8,3.2-.7,1.8-.4.5-.6-1-.2-1.2-.4-.5-.4-.2h-.4l-.6-.2-.3-.4-.4-.1h-.3l-.3-.4-1.6-.6-.5-.1-.3-.2-.1-.2-.1-.3h-.1l-.2.1-.3.3-.3.1-.2-.2-.2-.4-.5-.7-.4-.8-.2-.2-.1-.4-.3-.2h-.7l-.7-.2-.8-.1-.3-.1-.2-.2-.2-.2-.4-.2-.4-.1h-.3l-.4.1-.1-.1v-.1l-.1-.4-.4-.8-.3-.2-1.4-.4-.2-.2-.1-.3.2-.2v-.3h-.4l-.4.1-.2.1v.2l.1.3-.1.2-.2.1-.3.1-.5-.1h-1l-.9-.1-.7-.4-.4-.4-.3-.1h-.6l-.3-.2-.3-.4-.4-.4-.6-.2-.7-.1-.5-.3-.4-.1h-.2l-.1.2h-.3l-.1-.1v-.6l-.1-.3-.2-.3-.1-.1-.2.1-.1.2-.3.1h-.6l-.9-.5h-.6l-.3.1v.2h-.2l-.1-.2-.1-.1h-.2l-.2.2-.5.5-.2.2-.2.2h-1.1l-.1-.1-.3-.3h-.3l-1,.2-.4-.3h-.3l-.3.1-.2.2-.3.1-.3-.1-.1-.2-.1-.2h-.2l-.2.2-.1.3-.3.2-.2-.1h-.2l-.1.1-.1.1-.4.2-.2.2-.1.2-.2.2-.1-.1v-.4l-.2-.1-.5-.2-.8-.1-1.3-.3-.8-.2-.3-.1v-.2l.2-.2-.1-.2-.2-.3-.2-.2-.2-.1h-.7l-.4-.2-.3-.3h-.3l-.4.1-.3.2-.7.1-.5-.1-.6.1-.2-.1v-.6h-.2l-.2.2h-.4l-.3-.1-.3-.4-.1-.4v-.3l-.2-.2-.2-.3-.5-.4-.3-.3-.2-.4-.5-.6-.3-.8-.1-1.2v-2.1l.2-.7v-.8l-.2-.7-.7-.7-.7-.4-1-.3-.9-.1-.8.1-1.4.4-1,.2-.2.2-.5.6-.2.2-.5.1-.6.1-1,.3-1.1.2h-1.4l-.4.1-.7.4-.5.1-.8-.2-.6-.3-.5-.1-.3.1-1,.9-.4.5-.1.6-.1.6-.2.6-.3.4h-1l-5.2-2.1-4.4-1-.6-.3-.4-.6-.3-1.5-.2-.5-.1-.3.1-.4,1.1-1.2.5-1.2-.5-.6-.3-.3-.2-.4.1-.4.9-.8.4-.6v-.3l-.3-.3-.7-.2-2.3-.3-.9-.4-2.5-1.7-.5-.2-.4-.2-.6-.2-.3-.5-.2-.9.1-.8.4-.9.6-.9,2.6-2.5.5-.6.2-.6-.1-.3-.4-.3h-.8l-.7.5-.7.3-2.4,2.3-1.3,2.6-.8.9-.4.2-2,.7-8.5,4.1-.6.5-1.1.2-.1.2-.9.4-1.1.2-1.3.1-1.2-.2-.7-.4v-.5l.5-.5.5-.6.4-.7,1.3-3.1.1-.8-.4-1.7v-.8l.4-1,.4-.9.4-.6.7-1.1.2-.5-.1-.7-.4-1.4-.3-.5-.4-.4-.8-.5-.2-.3-.6-1.2-1.5-1.9-.6-.5-.6-.3-.5-.1-.7-.4-.1-.4v-.5l.3-.4.6-.4,1.7-1,.3-.4.3-.4-.1-.7v-.4l.2-.4.5-.1.7.2,2.3,1.5,1.2.5,1.4.5,1,.1.7-.1.6-.2.5-.4,1.3-2.2.6-1.3.2-.4.3-.2h.3l.7.2.2-.1.2-.3-.1-.9.1-.4.1-.4,1.7-.7.6-.3.4-.4.2-.5v-.9l.1-.3.2-.3.4-.3.1-.5.1-.8-.5-1v-.2l.2-.3v-.3l.1-.4-.2-.4-.6-1-.7-.9-.4-.5-.3-.6v-.5l.2-.8.1-1.5.2-.5-.6-3.9h0Z"/>
    <path id="ECY" class="st0" d="M337.55,190.93l-.9,1.1-2.9,2.7-2.2,2.6-2.7,3.1-2.7,3.2-2.7,3.1-2.7,3.2-2.7,3.1-2.7,3.2-2.7,3.1-2.8,3.2-3.2,2.5-3.2,2.4-3.2,2.5-3.3,2.5-3.2,2.5-3.2,2.4-3.3,2.5-3.2,2.5-3.1,2.4-2.4,1.4-.8-.2-1.1.5-1.1.4-2.3-1.1-1.9-.4-.7-.4-.8-.7h-.7l-1.6.5-2.4.1-2.3-.7-1.8-1.2-1.3-1.5-.7-1.9-.1-.2-.1-.5-.4-.4-.4-.2-.5-.8-1.9-2.3-1-1.8-.6-.8-.8-.3-.9-.3-12.5-8-14.9-6.4-1.9-.4-.9-.4-.7-.6-.3-.9-.2-.9-.4-.8-.7-.7-1-.3-2.2-.6-.9-.5-.5-.6-.2-.8-.1-1.6-.3-.8-.8-1.3-.2-.8v-1.1l-.1-.5-1-1.6-.7-3.6-.7-1.2-.8-.6-1-.1-2.5.6-.8.1-.7-.6-.5-1.3-.5-1.8-1.6-4.3-.5-.8-.7-.8-.7-.8-1.3-1.1-2.4-.5,1.3-1.2,1.5-2.8.2-.8.2-.8-.1-5.9,2.7.2,1.5-.1,3.9-.7h1.3l.8.2.6.2.5.3.5.1.4-.3.3-.8.2-.2h.3l.4.2.5.2.7.2.8-.2,1.3-.6,2.1-1.5.6-.2,1.1-.5.7-.1,1-.6.6-.3.7-.1.7-.1.7-.1.8.2h1.1l.7-.3.7-.2,2.6-.2,4.8-2.2.7-.4.6-.2h1.8l1.5-.3,5.2-1.6,1.2-.7.6-.4.6-.2.8-.2,9-.6-1.1,1.2-.1.4.1.3.2.5.3,1.5.4.6.6.3,4.4,1,5.2,2.1h1l.3-.4.2-.6.1-.6.1-.6.4-.5,1-.9.3-.1.5.1.6.3.8.2.5-.1.7-.4.4-.1h1.4l1.1-.2,1-.3.6-.1.5-.1.2-.2.5-.6.2-.2,1-.2,1.4-.4.8-.1.9.1,1,.3.7.4.7.7.2.7v.8l-.2.7v2.1l.1,1.2.3.8.5.6.2.4.3.3.5.4.2.3.2.2v.3l.1.4.3.4.3.1h.4l.2-.2h.2v.6l.2.1.6-.1.5.1.7-.1.3-.2.4-.1h.3l.3.3.4.2h.7l.2.1.2.2.2.3.1.2-.2.2v.2l.3.1.8.2,1.3.3.8.1.5.2.2.1v.4l.1.1.2-.2.1-.2.2-.2.4-.2.1-.1.1-.1h.2l.2.1.3-.2.1-.3.2-.2h.2l.1.2.1.2.3.1.3-.1.2-.2.3-.1h.3l.4.3,1-.2h.3l.3.3.1.1h1.1l.2-.2.2-.2.5-.5.2-.2h.2l.1.1.1.2h.2v-.2l.3-.1h.6l.9.5h.6l.3-.1.1-.2.2-.1.1.1.2.3.1.3v.6l.1.1h.3l.1-.2h.2l.4.1.5.3.7.1.6.2.4.4.3.4.3.2h.6l.3.1.4.4.7.4.9.1h1l.5.1.3-.1.2-.1.1-.2-.1-.3v-.2l.2-.1.4-.1h.4v.3l-.2.2.1.3.2.2,1.4.4.3.2.4.8.1.4v.1l.1.1.4-.1h.3l.4.1.4.2.2.2.2.2.3.1.8.1.7.2h.7l.3.2.1.4.2.2.4.8.5.7.2.4.2.2.3-.1.3-.3.2-.1h.1l.1.3.1.2.3.2.5.1,1.6.6.3.4h.3l.4.1.3.4.6.2h.4l.4.2.4.5.2,1.2.6,1h0Z"/>
    <path id="ECS" class="st0" d="M278.55,246.13l-.8.5-5,1.7-6.8,2.4-6.8,2.4-6.8,2.4-6.8,2.4-6.8,2.4-6.8,2.4-6.9,2.3-6.8,2.4-1.5.5-2.1.8-1,.5-4,3.5-5.4,7.3-2.7,2.2-.7.8-1.7,3.2-.7,1-1.9,1.5-.7.7v1.2l.6,1,.9.6.7.8.1,1.5-.5,1.1-.8.4-1,.2-.9.7-.7.3-.5-1-.8-3.4-.4-.9-.6-.5-2.4-.7-1.1-.1-.9.3-.6,1v.3l.4,1.1-.1.6-.4,2.3-.7,2.2h-6.8l-4,.7h-1l-2.1-.2-.7.1-.5.1-.3.2-.2.3-.5,1-.2.3-.4.3-.4-.1-.9-.4-.6-.2-1.8-.3-2.3-.6-1.5-.2-.6-.3-.3-.3v-.4l-.2-.3-.2-.3-.4-.4-.3-.4-.2-.3-.2-.4-.1-.5v-.9l-.3-.8v-.4l.1-.3.2-.4.2-.3.6-.5.3-.3.1-.3v-.4l-.1-.4-.4-.4-4.5-3.2-.3-.9.1-.4.3-.6,6.7-5.3,1.1-1.1,2-.6,1.8-1,1.4-1.1,1.4-1.6.5-.9.2-1-.1-.8v-.9l.2-.8,1.3-2.7.2-.6.3-.9,2.6-4.2.3-.8v-.5l-.2-.5-.4-.6-.5-.5-.3-.4-.2-.4.1-.4,1.7-3.1.5-.6.5-.5,6-3,.6-.5.2-.5v-.5l-.1-.4-.2-.5-.4-.4-1.7-1.2-.3-.2h-.5l-.5.2-.5.2-.6.5-.3.6-.2.6-.1.6-.2.3h-.4l-.5-.2-.4-.4-.2-.5-.1-.6.3-1.6.4.2h.4l.1-.1.3-.1.5-.7,1.3-2,.2-.4.1-.4v-1.2l.3-1-.1-3.1.1-.6.1-.5-.4-.6-.8-.6-3.3-1.5-.8-.4v-.6l1.9-1.3.3-.5.2-.7v-.6l.3-.8.5-.5.9-.7.3-.4v-.3l-.2-.3-.1-.3-.2-2.1.4-1.5.5-.9.8-.6.8-.4.7-.5.1-.4-.5-1.1-.2-.6v-1.3l-.2-.7-.4-.5-.4-.3-.4-.4-.2-.4v-.7l.2-.6,1.4-2.3,2.2-2.4.2-.7-.4-1.6-.2-1.3-.2-.5-.3-.3-.3-.3-.2-.5-.2-.8-.1-1v-1.1l.1-.6.3-.5.3-.3.3-.4.4-.3.4-.6.4-.5.5-.4,1.3-.7.5-.4.4-.5.2-.5.1-.6-.1-.5-.5-1.5v-.8l.1-.4.5-.9.9-1.2.6-.4,1.1-.6.7-.2,1.9.3h1.3l.8-.3.9-.4.5-.4,1.1-1.1,2.4.5,1.3,1.1.7.8.7.8.5.8,1.6,4.3.5,1.8.5,1.3.7.6.8-.1,2.5-.6,1,.1.8.6.7,1.2.7,3.6,1,1.6.1.5v1.1l.2.8.8,1.3.3.8.1,1.6.2.8.5.6.9.5,2.2.6,1,.3.7.7.4.8.2.9.3.9.7.6.9.4,1.9.4,14.9,6.4,12.5,8,.9.3.8.3.6.8,1,1.8,1.9,2.3.5.8.4.2.4.4.1.5.1.2.7,1.9,1.3,1.5,1.8,1.2,2.3.7,2.4-.1,1.6-.5h.7l.8.7.7.4,1.9.4,2.3,1.1,1.1-.4,1.1-.5.8.2h0Z"/>
    <path id="ECZ" class="st0" d="M155.65,287.23l4.5,3.2.4.4.1.4v.4l-.1.3-.3.3-.6.5-.2.3-.2.4-.1.3v.4l.3.8v.9l.1.5.2.4.2.3.3.4.4.4.2.3.2.3v.4l.3.3.6.3,1.5.2,2.3.6,1.8.3.6.2.9.4.4.1.4-.3.2-.3.5-1,.2-.3.3-.2.5-.1.7-.1,2.1.2h1l4-.7h6.8l-.1.3-1,2.2-.3,1.1-.2,1,.1,2,.2,1.1v.5l-.5.3-.6.1-.3.1v1l.7,3.5-.4,1-1.3,1.3-.4.3-.7.3-.3.3-.6,1-.4,1.1-.5,4v.3l-.2.3-.8.4-.7.2-.6.1-.6.1-.6.6-.2.9v3.2l-.6,2.4-3.3,6.9-.5,2.4-.5,1.1-.9.8-.5,1.1.1,2.1.4,2,.7,1,1.3.8-.2.9-.8,1-.8,1.3-.2,1,.1,1.1-.1,1-.5.9-1.4,1-.6.4-5,1.9-2.2,1.3-2.5,2.3-1,1.4-.6,1.5v1.5l1.2,2.4.3,1.3-.6,1.1-1.2.3h-1.4l-1.1.3-.6.9-.6,2.6-.4,1.1-1.4,1.5-1.6,1.3-1-1-.6-.4-.5-.3h-.6l-.9.2h-.5l-1-.2-1.8-.6-.9-.2h-1.4l-2.5.1-1.2-.3-.8-.9-.6-1.2-.7-1-.4-.3-1.1-.4-.5-.3-.3-.5-.3-1.1-.3-.5-1-.7-1.1-.6-.9-.7-.4-1.2-.2-1,.5-.2,2.4-2.5,1.8-2.9.7-.8,1.6-2.4.4-.6.2-.8.1-.6-.2-.9-.1-.6.4-1.6.8-.7.3-.4.3-.6.4-.3.4-.1.6.1.6.3.7.1.5.2.5.4.5.4h.5l.3-.3.3-.5.3-.3.5-.1.4-.1.5-.2.3-.3.5-.8.8-1.1.6-.6.3-.4.2-.5.3-1.7.1-1.1-.1-1.4-.1-.6.4-3.1-.1-1.4.1-.7-.1-.9v-.5l-.1-.4-.7-.7-.1-.3-.3-.2-.2-.2-.6-.2-.2-.2-.1-.1-.2-.2-.1-.3-.2-.4v-.8l.2-1.1.8-3.1v-.8l-.2-1.6-.1-1.3.1-1.7.4-1.2.5-1.1.2-.7v-.5l-.1-.9-.1-.5-.7-1.1-1-1.2-.5-.8-.8-1.8-.5-1-.2-.4-.1-.5.1-.4.2-.3.2-.1h1.2l.3-.2.2-.2.3-.3v-1.1l.2-.4.8-.6.4-.2,1.1-1.4.9-.1.4-.1.4-.2.3-.5.2-.5.6-3.1-.3-2v-.6l.1-.6.4-1v-.5l-.2-.3-.3-.3-.2-.8-.1-.5.1-.5.2-.5.5-.7.7-.7,1-.7,3-1.8,1.1-1h0Z"/>
    <path id="ECL" class="st0" d="M146.85,304.23l-1.1,1.4-.4.2-.8.6-.2.4v1.1l-.3.3-.2.2-.3.2h-1.2l-.2.1-.2.3-.1.4.1.5.2.4.5,1,.8,1.8.5.8,1,1.2.7,1.1.1.5.1.9v.5l-.2.7-.5,1.1-.4,1.2-.1,1.7.1,1.3.2,1.6v.8l-.8,3.1-.2,1.1v.8l.2.4.1.3.2.2.1.1.2.2.6.2.2.2.3.2.1.3.7.7.1.4v.5l.1.9-.1.7.1,1.4-.4,3.1.1.6.1,1.4-.1,1.1-.3,1.7-.2.5-.3.4-.6.6-.8,1.1-.5.8-.3.3-.5.2-.4.1-.5.1-.3.3-.3.5-.3.3h-.5l-.5-.4-.5-.4-.5-.2-.7-.1-.6-.3-.6-.1-.4.1-.4.3-.3.6-.3.4-.8.7-.4,1.6.1.6.2.9-.1.6-.2.8-.4.6-1.6,2.4-.7.8-1.8,2.9-2.4,2.5-.5.2-1.4-2.7-.6-3.2-1.6-2.3v-1.2l1.3-2.2.1-.8-.3-.5-1.1-.7h-1.3l-.3-.2-.8-.5-.4-.2-2.7-2.7-1.5-.8-2,.3-1.9,1.1-3.6,1.1-2-.3-1.4-1.4-1.1-1.7-1.4-1.3-1.4-.3h-1.4l-1.4-.2-1.5-.8-1-.8-1.8-1.9-1-.8-.9-.4-1.1-.2-.9-.3-.4-.5h-.1l-2.2.3-.6.2-.6.3-.4.3-.5.8-.5,1.9-.4.9-.9.9-4.2,3.2-2.2,1.2-.5.5h-1.4l-.9-.3-2.4-1.4-.8-.6-.4-1.2.2-.9,7.1-9.5.6-1.2-2.5.3-2.3.7-1.9-.2-1.1-2.4v-.5l.2-1.1v-.5l-.3-.7-.9-1.2-.3-.7.1-1,.5-1.4.6-1.3.6-.9.8-.6,1-.3h2.2l1.1.4,2.3,1.2,1,.2,1.1-.5,1-1.2.7-1.2.8-1,4.2-1.9.9-1v-.5h.8l4-.2,3.4-.8,3.2-1.5,1.1-.3,3.1-.3h1l.8.2,1.1.4.9.1,3.5-.2,1.2-.3.8-.3,1.4-1.6.6-.6,1.6-.9.8-.3.5-.3.5-.1.2.1.4.8.4.4.8.8.7.2.9.2,1.8-.3.7.1,1.1.4.6.1,1,.1,1-.3.7-.3.4-.5.4-.5.2-.5.1-.6-.5-1.5.1-.3.3-.4.8-.8.2-.3.3-.6.3-.8.1-.8-.1-.8-.3-.6-.4-.4-.3-.3-.7-.4-.6-.6-.4-.3-.6-.1-.5.2-.3.3-.6.8-.7.7-.4.3-.4.2-.2-.4-.1-.5.1-.7.8-2.5-.1-.7.1-1.3.2-.6.3-.6,1.9-2.2.1-.3.1-.3v-.3l-.2-.3-.3-.3-.4-.1-.4-.1-.3-.2-.2-.5-.3-1-.1-.9.3-2.9,1.4.6,1.4.2h1.9l1.5-.1h.8l.6.3.6.6.3.8v1.6l.1,1.2.3.7.6.7,1.4.6h1.1l.8-.1,1.5-.8.5-.1.3.3.4,1.1.6,1.1,1.6,2.7.4,1v1.3l.2,1.7,1,1.3h0Z"/>
    <path id="ECO" class="st0" d="M127.55,287.53l-.3,2.9.1.9.3,1,.2.5.3.2.4.1.4.1.3.3.2.3v.3l-.1.3-.1.3-1.9,2.2-.3.6-.2.6-.1,1.3.1.7-.8,2.5-.1.7.1.5.2.4.4-.2.4-.3.7-.7.6-.8.3-.3.5-.2.6.1.4.3.6.6.7.4.3.3.4.4.3.6.1.8-.1.8-.3.8-.3.6-.2.3-.8.8-.3.4-.1.3.5,1.5-.1.6-.2.5-.4.5-.4.5-.7.3-1,.3-1-.1-.6-.1-1.1-.4-.7-.1-1.8.3-.9-.2-.7-.2-.8-.8-.4-.4-.4-.8-.2-.1-.5.1-.5.3-.8.3-1.6.9-.6.6-1.4,1.6-.8.3-1.2.3-3.5.2-.9-.1-1.1-.4-.8-.2h-1l-3.1.3-1.1.3-3.2,1.5-3.4.8-4,.2h-.8v-.1l-.3-.3-.5-.3-.5-.5-.1-.5v-1l-.1-.5-.5-1.1-1.1-1.7-.2-1.1.1-.4.2-.4.2-.4-.1-.6-.3-1v-1.4l.4-1.1.1-.5-.1-.6-.3-1.1v-.6l-.1-.5-.5-.2-.6-.2-.3-.3v-.5l.4-1.4.1-1.1v-.5l-.1-.5-.4-.4-.8-.3-.4-.3-.1-1.2.3-1.1.2-.9-.8-.6-2.1-.6-.8-.4-.4-.2-.1-.4-.1-.4.2-.6.7-.4.3-.7.3-.7.5-.8-.5,1.5-.2.4.3,1.1.7-.5.3-1.7.5-.8,1.5,1.5.7-.3,4-.8.6.1.5.1h.4l.5-.2,1.2-1.5.3-.2,2-4.2.6-.8,1.2.2.3,1.3-.4,2.6.6-.3.3-.6.3-.6.5-.6.4-.4,1.8-1,.8-1,.5-1.1.3-1.2.2-2.1.9-2,1.2-1.8h.4l4.2.3.5.1,2.2.6,6.6,3.5,2.1,1.8.3.7.1.8-.1.8-.2.7-1.2,2.4-.4,1.1-.2.5-.6.4-1,.5-.3.2-.1.5.4.2.6.3h1.9l3.1-.7,2-.2h.7l.9.2,1.8.6h0Z"/>
    <path id="ECG" class="st0" d="M94.95,251.43l2.5.1,3.7,2.3,2.3.6-.1.4-.1.4-.3.4-.2.3-.6.5-2.8,1.2-.1.4-.8.8-.2.3-.3.8-.4.8-.5.5h-.1l-.6,1-.6,1.3-.7,1.2-.4.9-.9.4-.7.8.1,1.3-.9.7-.3.8-.9,1.3-1.9-.2-1.1.6-.9.3-1.3-.1-1.3-.4-.8-.4-.3-1.2.3-1.9.2-6.5.2-.7,1.9-3.4.7-2.2.8-.6,3.3-.9,3-1.5,1.1-.4h0ZM111.15,273.23l-2.2-.6-.5-.1-4.2-.3h-.4l.7-1.1.4-1.1-.5-.9.2-1.3.7-2.1.1-.9,1.7-5.6,1.1-2,.2-.4.5-1.1.2-1.3,1.1-3.1.7-1,1.6-1.6.5-1v-1.3l-.3-2.4-.8-1.9-.1-.3h-1.8l-.5-.2-.6-1-1.1-2.9-.6-1.1-.4-.7-.1-.7.1-3.2-.4-2.5v-.7l.3-1.2.1-.7-.2-.4-.1-.2-.7-.9-.2-.2-.1-.3-.1-.3-.1-.4v-.6l.3-.6.3-.5.1-.5-.4-.6.9-.9.8-.3.7-.4.2-1.2.5-.6.8-.5.9-.6.4-1.1-3.2,1.8-.3.3-.2.4v1l-.4.2-1.8.1-.4.4v.5l-.5,1.3-.5,2.2v1.5l.3,1.6,1.6,2.9.2,1.6-.9,10.6-.6,2.2-.3.6-1.5,1.6-.5.4-.9.2-1.9,1.1-.8.2-.5-.3-.3-.7-.5-.2-1.1.2-.4-.2-.7-.5-.3-.9.7-.8,1.6-1.1.5-1.2.3-.8.5-.5,1.5-.1.3.2.4.5.4.4h.6l.5-.3.2-.5v-.5l-.3-.6-.3,1.1-.7-.2-1.3-1.2-1.2.1-1,.5-.8.3-.3-.8.2-1.2,1-2.3.3-1.3.2-.6.4-.3.7-.1.5-.3.4-.4,1.1-1.7-.5.1-.2.2-.6.5-.4.2-1.1-.1-.5.1-.7.4-.4.7-2.4,6-3.7,5.2-1.6,1.8-1.8.8-.4.7-.4.5-.5.3h-.5l-.3-.2-.2-.4-.3-.3-.8-.4-.5.4-.2.9.2,1.1.2.2,1.5,1.5.2.4v.6l-.1,1.2-.5.5-1.2-.2-2.3-.9-2.3-1.9-.8-.5-.7-.7-.3-.2-.4-.1-.9-.1-.5-.2-2.1-1.3-4.1-4.8,4-3.7,3.2-2.4,4.6-1.1,2.7-1.6,2.4-3.6.8-5.5.2-4.8-2.1-3.3-2-1.8-3.2-1.9-4.3-1-2.8-1.7-1.5-2.6-.5-2.3h2.2l1.6-.1.4-.2.3-.3.1-.4.1-.3.1-.4v-.5l.1-.6.4-.6.5-.5.4-.6.3-.6.4-.5.6-.5.6-.3.7-.3.4-.3.5-1,.4-.3.5-.2.4.2.4.3.3.2.3-.1.4-.3.7-.4,2.1.1.8-.2.2-.5-.5-1.6-.1-.5v-.5l.1-.2-.1-.2-.4-.2-.5-.1-.6-.3-.7-.5-.5-.7-.3-.5v-.3l3.3-.5,1.8-1.2.3-.5v-.4l-.6-.9-.2-.6-.2-.6v-.7l.3-1.4.2-.6.4-.5.2-.1.4-.1.8-.5,1.2-.4.3-.2.1-.4-.2-1.2.1-1.1.4-.8.6-.5,1.2-.5,2.1-1.7.5-.7,1.1-2.9.4-1.7.5-1,.4-1.3.3-.8.5-.6.4-.2.2.1-.1.4-.1.5.1.3.3.1h1.2l.5.2,1-.3.8-.4,2.8-2.3.6-.7.9-1.5.7-.7.5-.6.2-.5.2-.5v-.7l.1-.5.2-.3.9-.5.2-.5.3-.7.2-.6,2.1-2.9.5-.5.7-.3.9-.3,3.4-.6,1.8-.5,1.9-.2h.9l.7.4.3.9-.3,1.7-.8,2.4v.5l.2.4v.3l-.3.5-.4.2-.5.4-.3.4-.3.6-.1.4-.4,1.9-.3.6-.3.4-.5.1-.5.1-.5.2-.3.3-.2.3-.6.7-.5.8-.4.3-.8.1-.4.1-.2.4-.1.6-.2.4-.2.4-.3.1-.4.1-.2.1-.2.1-.1.3-.1.6-.2.2-.2.2-.6.1-.3.1-.2.1-.2.3v1.4l-.2.6-.1.5-3,5.7-.5.6-1,1-.6,1-.3.5-.9,2.5-.1.6-.2,3.4v.6l.8,2.4-.1.4-.4.9v.7l.1.7.1.6.3.3,4.4,2.3.8.8.6,1.1.4,1.1.5.9,1.3,1.8.4.7.7,1.8,1.3,2.3.3,1.2.4.4,1.2.3,1.9-.3,2.8-1,.9-.1,1.2.1,1.1.5,2.4,1.7,1.2.6.7.4,1.6,1.3.7.7,4,6.7,2.7,2.6,2.2.4h1.3l.4-.2.3-.4.5-.3h.5l.5.5.2.4-.1,2.2-.6,1.2-.2.4-.6.6-.7.6-1.3.7-1.2.5-1.1.3-6.4,1.1-.7.3-.7.4-1.5,1.2-.6.6-.5.7v1.3l-.2.4v.4l.1.5.2.4v.3l-1.8,1.1-3.1,2.8.1.8.5.4.8.1,1.3-.7,1.5-.5.7,1.4.4.7-.1.6-.3.5-1.2,1.3-.5.4-.3.2-.3.2-.3.2-11.8,12.4-.5,1.3-.2,1.3.1,1,.3,1.5.1,1.6v.4l-3,3.6-.3.7-.2.5-.1,1h0ZM107.95,241.83l.6,1.4,1.3.5.7,1.2-1.2,1.7-1.9,1-.2,2.4-1.3.8-1.1-.1-.3-1.2.8-2.1,1.1-2.9,1.5-2.7h0Z"/>
    <path id="ECSE" class="st0" d="M70.25,206.93l.5,2.3,1.5,2.6,2.8,1.7,4.3,1,3.2,1.9,2,1.8,2.1,3.3-.2,4.8-.8,5.5-2.4,3.6-2.7,1.6-4.6,1.1-3.2,2.4-4,3.7-1.7-2-4.4-4.2-1.8-.5-1.6-.8-1.7.1-2.9-1-1-.4-2.3-2-1.1-.5h-.9l-.6-.1-.5-.5-.3-1.8-.4-.9-.9-1.2-.7-.8-2-1.6-.3-.3-.2-.6-.1-.5.2-.3.4.1.2.2.1.3.2.2,1.4.3h.6l.3.2.3.9.7.8,1.3-.1,2-.7,2.7-2.2,2.2-1.1,1.9-2.1.4-3.2-.8-1.7-.4-1.7-.2-.4.3-.6.6-.1.7-.4.2-1.3-.2-1.4-1.5-5.8-.8-2.2-.3-1-.5-.9-.5-.6-.7-1-.3-.8,1.5-.3,1,.1h.4l.8-.3,3.9.2,1-.2,1.9-.6,1-.1,1.6.3.7.4.3.5-.1.5v.3l.1.3.7.7.2.4.1.5-.2,1.6-.1.3-.6,1-.2.5-.1.5-.1.5.1.5.5.6.8.4,1.2.3h0Z"/>
    <path id="ECM" class="st0" d="M98.25,88.53l1.3,3.3.7.9.4.2.4.1.4.1h.6l.1-.1.4-.3.2-.2.2-.2.2-.2.2-.2.2-.5.3-.6.1-.6v-.1l.1-.1.1-.1h.2l.1-.1,1.9.1h.9l1-.2.7-.3.3-.2.6-.4,1.1-1.2.3-.2.3-.2.7-.3.4-.1h.3l.3.2.2.1.6.4.4.5.1.1.1.2v.3l-.1.1-.5.5-.2.3-.1.2-.1.2v.6l.1.2.2.2.1.2,2.6,1.5.2.2.1.2.1.1v.1l-.1.2-.1.2-.3.3-.4.3-.3.2-.3.4-.2.4-1,1.5-.1.1.1.2.2.2.6.6.3.1.2.1.2-.1.1-.1.2-.1.2-.1h.3l.1.1.1.2.1.9.1.3.1.2h.3l.1-.1.5-.3.3-.1h.2l.2.2.4.4,1,1,.5.2.3.1h.4l.1.1h.1l.1.1-.1.1-1.4,1.6-.1.2-.1.2-.1.4v.2l-.1.2-.1.1-.1.1h-.2l-.1.1-.1.1-.1.1-.1.2-.1.2v.4l.2.5v.6l.1.3.9,1.4-.4.5-.1.4-.1.6.2,1.1.3.5.5.4.3.1.4.2.4.4.7.4.4.4,1.4,1.7,1.4,1.3.4.2,1.9.6h1.6l.5.2.2.4-.1.9.4,9.7-.2.8-.4.8-1.7,2.7-.1,1.2-.1.5-.6,1.5-.9,1.2-.7,2.5-.5,1.2-1.2,2.4-.6,1.9-.2.3-.5.4-.6.1-.5.3-.5.6-.5,1-.7,3.7-1.1,2.2-3.4.6-.9.3-.7.3-.5.5-2.1,2.9-.2.6-.3.7-.2.5-.9.5-.2.3-.1.5v.7l-.2.5-.2.5-.5.6-.7.7-.9,1.5-.6.7-2.8,2.3-.8.4-1,.3-.5-.2h-1.2l-.3-.1-.1-.3.1-.5.1-.4-.2-.1-.4.2-.5.6-.3.8-.4,1.3-.5,1-.4,1.7-1.1,2.9-.5.7-2.1,1.7-1.2.5-.6.5-.4.8-.1,1.1.2,1.2-.1.4-.3.2-1.2.4-.8.5-.4.1-.2.1-.4.5-.2.6-.3,1.4v.7l.2.6.2.6.6.9v.4l-.3.5-1.8,1.2-3.3.5v.3l.3.5.5.7.7.5.6.3.5.1.4.2.1.2-.1.2v.5l.1.5.5,1.6-.2.5-.8.2-2.1-.1-.7.4-.4.3-.3.1-.3-.2-.4-.3-.4-.2-.5.2-.4.3-.5,1-.4.3-.7.3-.6.3-.6.5-.4.5-.3.6-.4.6-.5.5-.4.6-.1.6v.5l-.1.4-.1.3-.1.4-.3.3-.4.2-1.6.1h-2.2l-1.2-.3-.8-.4-.5-.6-.1-.5.1-.5.1-.5.2-.5.6-1,.1-.3.2-1.6-.1-.5-.2-.4-.7-.7-.1-.3v-.3l.1-.5-.3-.5-.7-.4-1.6-.3-1,.1-1.9.6-1,.2-3.9-.2-.8.3h-.4l-1-.1-1.5.3-.9-2.4-.8-.9-.2-.7-.1-.8.2-.6,1.9-1.4-.2-1.2v-1.6l.5-.4.6-.6.7-.2h.9l.2-.7v-.8l.1-1,.3-1-.3-1.2.3-.8.9-.4-.1-1.4-1.6-2.2-3.2-3.9-2.6-4.6-1.2-2.7-.7-1.6.4-1.1.6-.7.8-.6.7-.8.4-.5.4-.6.7-.7.7-.8.1-.4.6-.3.8.2h.7l.8-.4.7-.3.8.2.7-.3.6-.2-.1.5,1,.4.8.1.7-.6.4-.1.4-.6.6-.1.5.7.5.1,1,.1,1.3-.5,1.2-1,1.2-1.3.8-3.4.2-1,.7-3.5,1-2.7,1.2-2.5.7-1.6.3-.3.4-.3.8-.1.7-.3.1,1.4.8,1.1,1.4.7,1.4.2h2.9v-.6l-1.5-.4-1.6-.4h-1.1l-.8-.6-.6-1.5-.7-1.3-.7-.3-.4-.5-.1-1.3-.6-1.6-.1-1.5-.8-1.7-1-1.2-.7-2.3.6-.8,1.1-.1,1.8-1.4,1.7-2.5.5-1,.2-.7.5-1.2.4-.9,1.2-.4.7-1.1.7-1.2,1,.9,1.2-.6,1.3-1,1.5-1.1,3.2-3.5,2.6-3.3.9-1.1.4-1.1.1-.7.3-.2.3-.1,1.1-.4.9-2,.4-1.8.3-2.9v-1.3l-.5-2.3-.1-4.1.5-1.4v-.5l.2-.2.5.3.3.3.2.4.3.8h.4v-.7l.3-.4h0Z"/>
    <path id="ECA" class="st0" d="M176.75,246.03l-.3,1.6.1.6.2.5.4.4.5.2h.4l.2-.3.1-.6.2-.6.3-.6.6-.5.5-.2.5-.2h.5l.3.2,1.7,1.2.4.4.2.5.1.4v.5l-.2.5-.6.5-6,3-.5.5-.5.6-1.7,3.1-.1.4.2.4.3.4.5.5.4.6.2.5v.5l-.3.8-2.6,4.2-.3.9-.2.6-1.3,2.7-.2.8v.9l.1.8-.2,1-.5.9-1.4,1.6-1.4,1.1-1.8,1-2,.6-1.1,1.1-6.7,5.3-.3.6-.1.4.3.9-1.1,1-3,1.8-1,.7-.7.7-.5.7-.2.5-.1.5.1.5.2.8.3.3.2.3v.5l-.4,1-.1.6v.6l.3,2-.6,3.1-.2.5-.3.5-.4.2-.4.1-.9.1-1-1.3-.2-1.7v-1.3l-.4-1-1.6-2.7-.6-1.1-.4-1.1-.3-.3-.5.1-1.5.8-.8.1h-1.1l-1.4-.6-.6-.7-.3-.7-.1-1.2v-1.6l-.3-.8-.6-.6-.6-.3h-.8l-1.5.1h-1.9l-1.4-.2-1.4-.6-1.8-.6-.9-.2h-.7l-2,.2-3.1.7h-1.9l-.6-.3-.4-.2.1-.5.3-.2,1-.5.6-.4.2-.5.4-1.1,1.2-2.4.2-.7.1-.8-.1-.8-.3-.7-2.1-1.8-6.6-3.5.1-1,.2-.5.3-.7,3-3.6v-.4l-.1-1.6-.3-1.5-.1-1,.2-1.3.5-1.3,11.8-12.4.3-.2.3-.2.3-.2.5-.4,1.2-1.3.3-.5.1-.6-.4-.7-.7-1.4,1.8.1.9.5.6.7,1,2.1.5.6.7.3,1.4.1.9.6.4.5.3.6.3.6.5.6,4.8,5,.7.5.6.2.6-.4.1-.4.1-.5v-.5l.3-.3.5-.3,1.1-.5.4-.3.3-.4.1-.4.2-.4.3-.2.4-.1.6.3.7.4.8.7.7.8,1.6,2,1,.7,1.2,1.2.3.5.2.6.3,1.3.3.6.8.3,2,.2h.8l.6-.1.5-.2h.4l.5.1.3.1.3-.1v-.3l-.1-.9.1-.5.2-.4,1-1.3.2-.3.1-.4v-.4l-.2-.5-.1-.6.1-.5.4-.6.4-.4.6-.2h.7l1.1.2h.4l.5-.3.7-.5,1.1-.9.5-.4,1.3-.3.6-.2.8-.6.3-.7.1-.6.3-.6.5-.6,2-1.4.8.1h0Z"/>
    <path id="ECF" class="st0" d="M175.15,232.43v.6l.8.4,3.3,1.5.8.6.4.6-.1.5-.1.6.1,3.1-.3,1v1.2l-.1.4-.2.4-1.3,2-.5.7-.3.1-.1.1h-.4l-.4-.2-.8-.1-2,1.4-.5.6-.3.6-.1.6-.3.7-.8.6-.6.2-1.3.3-.5.4-1.1.9-.7.5-.5.3h-.4l-1.1-.2h-.7l-.6.2-.4.4-.4.6-.1.5.1.6.2.5v.4l-.1.4-.2.3-1,1.3-.2.4-.1.5.1.9v.3l-.3.1-.3-.1-.5-.1h-.4l-.5.2-.6.1h-.8l-2-.2-.8-.3-.3-.6-.3-1.3-.2-.6-.3-.5-1.2-1.2-1-.7-1.6-2-.7-.8-.8-.7-.7-.4-.6-.3-.4.1-.3.2-.2.4-.1.4-.3.4-.4.3-1.1.5-.5.3-.3.3v.5l-.1.5-.1.4-.6.4-.6-.2-.7-.5-4.8-5-.5-.6-.3-.6-.3-.6-.4-.5-.9-.6-1.4-.1-.7-.3-.5-.6-1-2.1-.6-.7-.9-.5-1.8-.1-1.5.5-1.3.7-.8-.1-.5-.4-.1-.8,3.1-2.8,1.8-1.1v-.3l-.2-.4-.1-.5v-.4l.2-.4v-1.3l.5-.7.6-.6,1.5-1.2.7-.4.7-.3,6.4-1.1,1.1-.3,1.2-.5,1.3-.7.7-.6.6-.6.2-.4.6-1.2.2,1.5.1.3.4.5.3.2.3.2.3.1.2.3.3.8.3.4.3.2.5.4.5.4,1.8,2.4.8.8.8.5,1.1.5,1.1.7.7.3,1.2.2,1.6-.2,1.7-.4,1.9-.9.9-.8,1.2-1.2,1.4-.5,2-.5,6.8-.8,1.1.5h0Z"/>
    <path id="ECN" class="st0" d="M200.25,174.03l.1,5.9-.2.8-.2.8-1.5,2.8-1.3,1.2-1.1,1.1-.5.4-.9.4-.8.3h-1.3l-1.9-.3-.7.2-1.1.6-.6.4-.9,1.2-.4-.5-.2-1-.2-.3-.4-.2-.7-.2-.6-.4-.6-.2-1-.3-.7-.3-1.3-.9-.7-.3-.6.1-.5.5-.4.9-.5.6-.6.2-.9-.2-.8-.1-1.1.2-.9.3-1.3.2-1.4-.1-2.9-.6-1.3-.5-1.1-.6-1.6-1.2-.8-.4-.7-.2-.7.1-.7.3-1.8,1.1-1.1.4-.5-.7-.6-.8-1.3-1.9-.2-.7.6-2.7.4-1,.7-1.6.2-.9.1-2.1.2-.7,1.1-2.1,1.6-.6,1.5-1.3,1.3-.4,1-.2,1-.1,2.5.6h1.4l.9-.2.8-.4,1.3-1,.6-.2,1.4-.1.5-.2.4-.3.2-.4v-1.1l.6-.5.6-.1h.5l.4.2.4.2.3.3.4.3.7.3,1.3-.1.7-.3.5-.6.6-1.1v-.9l.1-.6.2-.5.3-.6.2-.4,1.6-1.4,1.1,1.9,1.4,1.6.5,1,.2.8v2.5l-.1.8-.1.5-.5,1-.2.6.2.2h.3l1.9-1.1.7-.2h.7l1.2.3h.4l.9-.2.6-.1.2.2.2.3.1.5.3.1.6-.1h.3l.2.3.5,1.1.9.3,1.8.2.4.4.2.5v1.3h0Z"/>
    <path id="ECT" class="st0" d="M215.55,105.43l2.4.6.5.3v.5l-.1.1-.1.1v.1l-.1.3v.5l.3,1.8.4,1,.7.5,1,.2,5.4.1,1.5.4.7.3.6.4.4-.1.6-.4,1.1-1.2.6-.4,1-.1.5-.2.3-.3.2-.3.2-.2.2-.1.3-.1.7-.5.6-.3.4.2.2.4.2.5.2.4.1.3.1.2-.1.3-.1.3-.1.3v.2l.2.5v.5l-.1.4-.1.3v.4l.1.3.5.2,2.5.6,1,.1h.6l.3-.2.4-.3.3-.5.6-1.1.4-.7,1.4-1.7.6,3.9-.2.5-.1,1.5-.2.8v.5l.3.6.4.5.7.9.6,1,.2.4-.1.4v.3l-.2.3v.2l.5,1-.1.8-.1.5-.4.3-.2.3-.1.3v.9l-.2.5-.4.4-.6.3-1.7.7-.1.4-.1.4.1.9-.2.3-.2.1-.7-.2h-.3l-.3.2-.2.4-.6,1.3-1.3,2.2-.5.4-.6.2-.7.1-1-.1-1.4-.5-1.2-.5-2.3-1.5-.7-.2-.5.1-.2.4v.4l.1.7-.3.4-.3.4-1.7,1-.6.4-.3.4v.5l.1.4.7.4.5.1.6.3.6.5,1.5,1.9.6,1.2.2.3.8.5.4.4.3.5.4,1.4.1.7-.2.5-.7,1.1-.4.6-.4.9-.4,1v.8l.4,1.7-.1.8-1.3,3.1-.4.7-.5.6-.5.5v.5l.7.4,1.2.2,1.3-.1,1.1-.2.9-.4.1-.2,1.1-.2.6-.5,8.5-4.1,2-.7.4-.2.8-.9,1.3-2.6,2.4-2.3.7-.3.7-.5h.8l.4.3.1.3-.2.6-.5.6-2.6,2.5-.6.9-.4.9-.1.8.2.9.3.5.6.2.4.2.5.2,2.5,1.7.9.4,2.3.3.7.2.3.3v.3l-.4.6-.9.8-.1.4.2.4.3.3.5.6-.5,1.2-9,.6-.8.2-.6.2-.6.4-1.2.7-5.2,1.6-1.5.3h-1.8l-.6.2-.7.4-4.8,2.2-2.6.2-.7.2-.7.3h-1.1l-.8-.2-.7.1-.7.1-.7.1-.6.3-1,.6-.7.1-1.1.5-.6.2-2.1,1.5-1.3.6-.8.2-.7-.2-.5-.2-.4-.2h-.3l-.2.2-.3.8-.4.3-.5-.1-.5-.3-.6-.2-.8-.2h-1.3l-3.9.7-1.5.1-2.7-.2v-1.3l-.2-.5-.4-.4-1.8-.2-.9-.3-.5-1.1-.2-.3h-.3l-.6.1-.3-.1-.1-.5-.2-.3-.2-.2-.6.1-.9.2h-.4l-1.2-.3h-.7l-.7.2-1.9,1.1h-.3l-.2-.2.2-.6.5-1,.1-.5.1-.8v-2.5l-.2-.8-.5-1-1.4-1.6-1.1-1.9-.9-.5-1.3-.2-.4-.3-.1-.3.1-.4.3-.2.3-.3.3-.3.1-.5v-.8l.1-.5.3-.8.6-.8.6-1.1.2-1.1-.1-1.2-.3-1.9-.6-1.9v-.6l.5-1.4,1.1-.5.7-.2,1.4-.3.4-.3.3-.4.2-.7.2-1.5.3-.7.5-.7,1-1,.6-.9.6-1.1v-1.2l.1-.6.3-.6.6-1.1.3-.7.1-.6-.8-1.5.3-.8.6-1,1.5-2,.6-1.3.4-1.3.2-4.9-.1-.6.1-.4.4-.3.5-.2.5-.1,1.3-.4h.4l.4.2.6.5.3.2.4-.1.7-.2.5-.5.6-1.1.1-.5.2-.5.2-.1.5.1,1.1.2h.6l.3-.2.6-1,.2-.3.4-.1.2-.3.2-.6.1-1.4.2-.5.4-.4,1.9-.6,3.9-2,.6-.5.7-1.2h0Z"/>
    <path id="ECH" class="st0" d="M187.35,189.83l-.5.9-.1.4v.8l.5,1.5.1.5-.1.6-.2.5-.4.5-.5.4-1.3.7-.5.4-.4.5-.4.6-.4.3-.3.4-.3.3-.3.5-.1.6v1.1l.1,1,.2.8.2.5.3.3.3.3.2.5.2,1.3.4,1.6-.2.7-2.2,2.4-1.4,2.3-.2.6v.7l.2.4.4.4.4.3.4.5.2.7v1.3l.2.6.5,1.1-.1.4-.7.5-.8.4-.8.6-.5.9-.4,1.5.2,2.1.1.3.2.3v.3l-.3.4-.9.7-.5.5-.3.8v.6l-.2.7-.3.5-1.9,1.3-1.1-.5-6.8.8-2,.5-1.4.5-1.2,1.2-.9.8-1.9.9-1.7.4-1.6.2-1.2-.2-.7-.3-1.1-.7-1.1-.5-.8-.5-.8-.8-1.8-2.4-.5-.4-.5-.4-.3-.2-.3-.4-.3-.8-.2-.3-.3-.1-.3-.2-.3-.2-.4-.5-.1-.3-.2-1.5,2.9-1.5,1.9-2,1.1-1.5.2-.6.1-.6-.1-.6-.3-.5-.1-.5-.1-.7,1.4-6.9v-.6l-.3-1.2-.2-1.7.2-2.4v-1l.2-.5.3-.4.5-.4.6-.4,2-.2.7-.2,1.9-1.7,1.1-1.7.6-1.4.2-1.5-.1-1.8.1-1.2.2-1.3v-.9l-.3-.7-.9-1.4-.3-.7-.1-.5.1-1.1,1.1-.4,1.8-1.1.7-.3.7-.1.7.2.8.4,1.6,1.2,1.1.6,1.3.5,2.9.6,1.4.1,1.3-.2.9-.3,1.1-.2.8.1.9.2.6-.2.5-.6.4-.9.5-.5.6-.1.7.3,1.3.9.7.3,1,.3.6.2.6.4.7.2.4.2.2.3.2,1,.4.5h0Z"/>
    <path id="ECB" class="st0" d="M145.35,226.53l.1-2.2-.2-.4-.5-.5h-.5l-.5.3-.3.4-.4.2h-1.3l-2.2-.4.9-1.7.4-1.8.4-.9v-.5l-.4-.7-1.8-3-1.8-2.3v-.5l.2-.4.7-.5.2-.3.9-3.6.5-1,.2-.8-.3-.6-.4-.6-.4-.7-.2-.7v-.6l.2-1-.1-.5-1.6-2.4-.6-1.2-.4-.5-.4-.2h-.3l-.3-.1-.2-.3-.3-.1-.4-.1-.3-.1-.2-.3.1-.3.3-.2.5-.3.4-.4,1.5-1.7h.3l.3.1.3.2h.2l.3-.2.3-.5.2-.5.3-.8.1-.7-.3-.7-.5-.4-1.7-1.1-.8-.8-.4-.9-.3-1.2.1-4.2.1-.5.3-.4h.5l.3-.1.3-.3.1-.3v-.3l-1.6-1.1-.5-1-.4-.2h-.3l-.3.3-.7,1-.4.4-.5.2-.4-.1-.1-.3.1-.7.8-1,1.3-2,1-1.4,2.6-1.2,2.5-.2,4-2,1.2-.3,1.6-.2h.7l.8.1.3.3.3.4.3.4,1.7,1,1,.5,1.3.4,1.2-.1.9-.3,1.5-1.2.9-.5.7-.1,1.5.5-1.1,2.1-.2.7-.1,2.1-.2.9-.7,1.6-.4,1-.6,2.7.2.7,1.3,1.9.6.8.5.7-.1,1.1.1.5.3.7.9,1.4.3.7v.9l-.2,1.3-.1,1.2.1,1.8-.2,1.5-.6,1.4-1.1,1.7-1.9,1.7-.7.2-2,.2-.6.4-.5.4-.3.4-.2.5v1l-.2,2.4.2,1.7.3,1.2v.6l-1.4,6.9.1.7.1.5.3.5.1.6-.1.6-.2.6-1.1,1.5-1.9,2-2.9,1.5h0Z"/>
    <path id="ECI" class="st0" d="M151.75,92.73h1.3l.2-.2.3-.4,1.8-2.8,1.1-1.2.6-.4.1-.1v-.6l.2-.4.3-.4.7-.7.6-.6,1-.6.7-.2.6-.1,1.6.6,1.9.2.6.2,1.1.2.6.1h.5l.5.2.3.3.8.8.5.3.3.1h.4l.4-.2.9-.7.9-1,1.8-2.4,1.8-1.9.7-1.1.5-.4,1.7-1.3.5-.2h.5l.8.1h.6l.8-.1.5-.2.4-.3.3-.4.1-.7v-.8l-.5-.9-1.4-1.8-.3-.5-.3-.6-.4-1.6-.2-.6-1.6-2.9-.1-.5.1-.3.5-.3.5-.1,1-.1.4-.1.4-.3.5-.4.3-.6.1-.8-.1-1,.1-2.1.8.4,1,.3,2,.2.7.2.4.2,1,.9,2.4,1.6,1.7,1.5,1.3,1.5,1.4,2.5,2.1,2.7,1.2,3.1v.5l-.1,1.5.1,1,.3,1,.6.8,2,.4.4.3.7.5,1.1.2.9.1,1.9.5,2.5,1.4,2.2,1.5,2.5,1.4.7.5.9,1.2,1.3.6-1.7,2.2-.3.7v.5l.1.1.1.1h.3l.2.1.1.1.1.2v.2l-.2.2-.2.1-.7.8-1,1.4-.2.3-.2.2-.3.1-.2.1-.3.1-.8.5-1.9,2-6.2-1.9-.9-.1-.7.4-1.3,1-.9.6-2.4,1.1-1.5.4h-1.3l-1.5-.4-1-.5-.8-.6-1.2-1-.6-.5h-.5l-.6.2-1,.9-.3.1-.1-.2v-.4l.4-1v-.5l-.1-.6-.1-.6-.4-.4-.9-.4-1.5-.1-2.8.1-2.9.6-.7-.1-1.2.4-2.8.3-.6.2-.7.1h-1.2l-5.5-1.2-1.3-.1-4.6.5-2.2.7-1.1.1-.7.2h-.8l-.9-.2-.8-.4-.6-.3-.9-2.1h0Z"/>
    <path id="ECX" class="st0" d="M185.35,159.33l-1.6,1.4-.2.4-.3.6-.2.5-.1.6v.9l-.6,1.1-.5.6-.7.3-1.3.1-.7-.3-.4-.3-.3-.3-.4-.2-.4-.2h-.5l-.6.1-.6.5v1.1l-.2.4-.4.3-.5.2-1.4.1-.6.2-1.3,1-.8.4-.9.2h-1.4l-2.5-.6-1,.1-1,.2-1.3.4-1.5,1.3-1.6.6-1.5-.5-.7.1-.9.5-1.5,1.2-.9.3-1.2.1-1.3-.4-1-.5-1.7-1-.3-.4-.3-.4-.3-.3-.8-.1h-.7l-1.6.2-1.2.3-4,2-2.5.2-.4-1.7-1.4-1.9-.5-.8v-1.3l.2-1.4.8-3.8-.1-.9v-1l.2-.9.7-1.9.4-.8.6-.6.6-.5.6-.5,1.5-2.7.4-.5.5-.4.5-.3.5-.3.3-.4.8-1.4,3.7-8.8.6-2.4.8,1.2.2.2.3.2.5.2.3-.1.6-.2.3-.4.2-.4.2-.8.2-.3.4-.2.6-.2.4-.2.2-.1v-.3l-.1-.4-.2-.5-.3-.4-.4-.3-.9-.5-.3-.2-.1-.2v-.3l.3-.3.5-.9.6-1.6.3-.3.2-.2.2-.2.9-.4.3-.2.2-.2.1-.4.1-.4.1-.4.3-.4.2-.2.3-.1.6-.2.2-.2.2-.2.1-.1.3-.1.5.4.2.2v.7l.1.4,2.1,2.6.8,1.5.6,1,.2.5.3,1.3.2.6.8.6,3.4,2.5.9,1.2.5,1.2.1.9.2.5.4.5.3.2.6-.2,1.4-1,.5-.2.4-.1.4-.2.4-.2.5-.5.7-.3.5-.1.4.4.3.4.3.1.6-.2,1.4-.8h1.4l1.3.2.7-.1,1.5.6,3.6,3.7-.5,1.4v.6l.6,1.9.3,1.9.1,1.2-.2,1.1-.6,1.1-.6.8-.3.8-.1.5v.8l-.1.5-.3.3-.3.3-.3.2-.1.4.1.3.4.3,1.3.2.9.5h0Z"/>
    <path id="ECR" class="st0" d="M139.55,223.93l-2.7-2.6-4-6.7-.7-.7-1.6-1.3-.7-.4-1.2-.6-2.4-1.7-1.1-.5-1.2-.1-.9.1-2.8,1-1.9.3-1.2-.3-.4-.4-.3-1.2-1.3-2.3-.7-1.8-.4-.7-1.3-1.8-.5-.9-.4-1.1-.6-1.1-.8-.8-4.4-2.3-.3-.3-.1-.6-.1-.7v-.7l.4-.9.1-.4-.8-2.4v-.6l.2-3.4.1-.6.9-2.5.3-.5.6-1,1-1,.5-.6,3-5.7.1-.5.2-.6v-1.4l.2-.3.2-.1.3-.1.6-.1.2-.2.2-.2.1-.6.1-.3.2-.1.2-.1.4-.1.3-.1.2-.4.2-.4.1-.6.2-.4.4-.1.8-.1.4-.3.5-.8.6-.7.2-.3.3-.3.5-.2.5-.1.5-.1.3-.4.3-.6.4-1.9.1-.4.3-.6.3-.4.5-.4.4-.2.3-.5v-.3l-.2-.4v-.5l.8-2.4.3-1.7-.3-.9-.7-.4h-.9l-1.9.2-1.8.5,1.1-2.2.7-3.7.5-1,.5-.6.5-.3.6-.1.5-.4.2-.3.6-1.9,1.2-2.4.5-1.2.7-2.5,1.6.1,1.2.1,2.9-.1,1.2.2.6.3-.2.3-.4.4-.2.5.1.8.3.9.1.8-.2.6-.4.7-.1.5.1.5.1.5.3.4.5.4.7.2.7.1h.7l.7-.2.6-.4.5-.6.8-.7.7-.5,1.4-.8.6-.4,4-4,.8-.4.6-.1,1,.4-.6,2.4-3.7,8.8-.8,1.4-.3.4-.5.3-.5.3-.5.4-.4.5-1.5,2.7-.6.5-.6.5-.6.6-.4.8-.7,1.9-.2.9v1l.1.9-.8,3.8-.2,1.4v1.3l.5.8,1.4,1.9.4,1.7-2.6,1.2-1,1.4-1.3,2-.8,1-.1.7.1.3.4.1.5-.2.4-.4.7-1,.3-.3h.3l.4.2.5,1,1.6,1.1v.3l-.1.3-.3.3-.3.1h-.5l-.3.4-.1.5-.1,4.2.3,1.2.4.9.8.8,1.7,1.1.5.4.3.7-.1.7-.3.8-.2.5-.3.5-.3.2h-.2l-.3-.2-.3-.1h-.3l-1.5,1.7-.4.4-.5.3-.3.2-.1.3.2.3.3.1.4.1.3.1.2.3.3.1h.3l.4.2.4.5.6,1.2,1.6,2.4.1.5-.2,1v.6l.2.7.4.7.4.6.3.6-.2.8-.5,1-.9,3.6-.2.3-.7.5-.2.4v.5l1.8,2.3,1.8,3,.4.7v.5l-.4.9-.4,1.8-.9,1.7h0Z"/>
    <path id="ECP" class="st0" d="M132.65,104.63l1.1-2.6.7-1.3.6-1.6.7-1,.2-.3-.1-.3-.1-.4-.4-.4-.5-.4-1.4-1-.2-.3v-.4l.3-.4.5-.3,1.1-.5.8-.5,1.1-.9.5-.3.7-.3.5-.3,1.6-1,.6-.2h.8l1.3.1h1.4l5.7,1.2.5.2.3.2.8,1.1.9,2.1.6.3.8.4.9.2h.8l.7-.2,1.1-.1,2.2-.7,4.6-.5,1.3.1,5.5,1.2h1.2l.7-.1.6-.2,2.8-.3,1.2-.4.7.1,2.9-.6,2.8-.1,1.5.1.9.4.4.4.1.6.1.6v.5l-.4,1v.4l.1.2.3-.1,1-.9.6-.2h.5l.6.5,1.2,1,.8.6,1,.5,1.5.4h1.3l1.5-.4,2.4-1.1.9-.6,1.3-1,.7-.4.9.1,6.2,1.9-1.3,2.3h-.1v.1l.1.1.1.1.2.1.6.2.6.2h.5l1.5.7.7.3h.3l.2.1.2.1.8.4.3.3.2.3.1.5.1.6.1.1v.1l.3.2.6.2-.7,1.2-.6.5-3.9,2-1.9.6-.4.4-.2.5-.1,1.4-.2.6-.2.3-.4.1-.2.3-.6,1-.3.2h-.6l-1.1-.2-.5-.1-.2.1-.2.5-.1.5-.6,1.1-.5.5-.7.2-.4.1-.3-.2-.6-.5-.4-.2h-.4l-1.3.4-.5.1-.5.2-.4.3-.1.4.1.6-.2,4.9-.4,1.3-.6,1.3-1.5,2-.6,1-.3.8.8,1.5-.1.6-.3.7-.6,1.1-.3.6-.1.6v1.2l-.6,1.1-.6.9-1,1-.5.7-.3.7-.2,1.5-.2.7-.3.4-.4.3-1.4.3-.7.2-1.1.5-3.6-3.7-1.5-.6-.7.1-1.3-.2h-1.4l-1.4.8-.6.2-.3-.1-.3-.4-.4-.4-.5.1-.7.3-.5.5-.4.2-.4.2-.4.1-.5.2-1.4,1-.6.2-.3-.2-.4-.5-.2-.5-.1-.9-.5-1.2-.9-1.2-3.4-2.5-.8-.6-.2-.6-.3-1.3-.2-.5-.6-1-.8-1.5-2.1-2.6-.1-.4v-.7l-.2-.2-.5-.4,1.7-2.6,6.9-.7,1-3.8-2.8-3.1-5.1-2.7-1.7-1.7-9.6.3-.4-4.5-11-.3-2.9-2.2h0Z"/>
    <path id="ECSD" class="st0" d="M120.05,107.93l1.1-.1,1.2.3,3.3.4,1.6.4.5.3.5.2.5.5h.1l.2-.2.2-.2.3-.2v-.3l-.1-.2-.2-.1h-.5l-.2-.1-.6-.8-.1-.3.1-.3,1-.3.5-.3,1.4-.3.7-.4.8-.7.3-.6,2.9,2.2,11,.3.4,4.5,9.6-.3,1.7,1.7,5.1,2.7,2.8,3.1-1,3.8-6.9.7-1.7,2.6-.3.1-.1.1-.2.2-.2.2-.6.2-.3.1-.2.2-.3.4-.1.4-.1.4-.1.4-.2.2-.3.2-.9.4-.2.2-.2.2-.3.3-.6,1.6-.5.9-.3.3v.3l.1.2.3.2.9.5.4.3.3.4.2.5.1.4v.3l-.2.1-.4.2-.6.2-.4.2-.2.3-.2.8-.2.4-.3.4-.6.2-.3.1-.5-.2-.3-.2-.2-.2-.8-1.2-1-.4-.6.1-.8.4-4,4-.6.4-1.4.8-.7.5-.8.7-.5.6-.6.4-.7.2h-.7l-.7-.1-.7-.2-.5-.4-.3-.4-.1-.5-.1-.5.1-.5.4-.7.2-.6-.1-.8-.3-.9-.1-.8.2-.5.4-.4.2-.3-.6-.3-1.2-.2-2.9.1-1.2-.1-1.6-.1.9-1.2.6-1.5.1-.5.1-1.2,1.7-2.7.4-.8.2-.8-.4-9.7.1-.9-.2-.4-.5-.2h-1.6l-1.9-.6-.4-.2-1.4-1.3-1.4-1.7-.4-.4-.7-.4-.4-.4-.4-.2-.3-.1-.5-.4-.3-.5-.2-1.1.1-.6.1-.4.4-.5h0Z"/>
  </g>
  <g id="label_points">
    <rect id="ECE1" data-name="ECE" class="st0" x="152.85" y="73.47"/>
    <rect id="ECC1" data-name="ECC" class="st0" x="219.75" y="74.57"/>
    <rect id="ECU1" data-name="ECU" class="st0" x="302.95" y="117.97"/>
    <rect id="ECD1" data-name="ECD" class="st0" x="316.35" y="157.97"/>
    <rect id="ECY1" data-name="ECY" class="st0" x="280.55" y="205.07"/>
    <rect id="ECS1" data-name="ECS" class="st0" x="222.45" y="244.57"/>
    <rect id="ECZ1" data-name="ECZ" class="st0" x="172.65" y="331.17"/>
    <rect id="ECL1" data-name="ECL" class="st0" x="132.85" y="334.97"/>
    <rect id="ECO1" data-name="ECO" class="st0" x="118.75" y="302.07"/>
    <rect id="ECG1" data-name="ECG" class="st0" x="110.35" y="211.47"/>
    <rect id="ECSE1" data-name="ECSE" class="st0" x="83.65" y="230.07"/>
    <rect id="ECM1" data-name="ECM" class="st0" x="114.55" y="135.07"/>
    <rect id="ECA1" data-name="ECA" class="st0" x="155.35" y="276.77"/>
    <rect id="ECF1" data-name="ECF" class="st0" x="171.05" y="250.27"/>
    <rect id="ECN1" data-name="ECN" class="st0" x="192.35" y="179.77"/>
    <rect id="ECT1" data-name="ECT" class="st0" x="221.95" y="154.27"/>
    <rect id="ECH1" data-name="ECH" class="st0" x="179.55" y="214.97"/>
    <rect id="ECB1" data-name="ECB" class="st0" x="162.05" y="196.67"/>
    <rect id="ECI1" data-name="ECI" class="st0" x="202.55" y="88.87"/>
    <rect id="ECX1" data-name="ECX" class="st0" x="170.75" y="157.97"/>
    <rect id="ECR1" data-name="ECR" class="st0" x="133.75" y="193.07"/>
    <rect id="ECP1" data-name="ECP" class="st0" x="193.75" y="117.57"/>
    <rect id="ECSD1" data-name="ECSD" class="st0" x="155.05" y="126.67"/>
  </g>
</svg>